<?xml version="1.0" standalone="no"?>
<!DOCTYPE svg PUBLIC "-//W3C//DTD SVG 20010904//EN"
 "http://www.w3.org/TR/2001/REC-SVG-20010904/DTD/svg10.dtd">
<svg version="1.0" xmlns="http://www.w3.org/2000/svg"
 width="201.000000pt" height="201.000000pt" viewBox="0 0 201.000000 201.000000"
 preserveAspectRatio="xMidYMid meet">
<metadata>
Created by potrace 1.11, written by Peter Selinger 2001-2013
</metadata>
<g transform="translate(0.000000,201.000000) scale(0.100000,-0.100000)"
fill="#000000" stroke="none">
<path d="M1130 1815 l0 -65 -125 0 -125 0 0 -60 0 -59 -62 -3 -63 -3 -3 -62
-3 -63 -124 0 -125 0 0 -60 0 -60 -60 0 -60 0 0 60 0 60 -65 0 -65 0 0 -125 0
-125 250 0 250 0 0 -60 0 -59 -122 -3 -123 -3 -3 -62 -3 -63 -59 0 -59 0 -3
63 -3 62 -60 0 -60 0 0 -125 0 -125 248 -3 247 -2 0 -60 0 -59 -122 -3 -123
-3 -3 -57 -3 -58 -59 0 -60 0 0 60 0 61 -62 -3 -63 -3 0 -120 0 -120 248 -3
247 -2 0 -60 0 -59 -122 -3 -123 -3 -3 -62 -3 -63 -59 0 -60 0 0 65 0 66 -62
-3 -63 -3 0 -125 0 -125 313 -3 312 -2 0 65 0 65 125 0 125 0 0 60 0 60 250 0
250 0 0 -60 0 -60 125 0 125 0 0 -65 0 -66 63 3 62 3 0 750 0 750 -62 3 -63 3
0 59 0 60 -125 0 -125 0 0 65 0 65 -250 0 -250 0 0 -65z"/>
<path d="M4 1617 c-2 -7 -3 -65 -2 -128 l3 -114 62 -3 63 -3 0 131 0 130 -60
0 c-41 0 -62 -4 -66 -13z"/>
<path d="M4 1237 c-2 -7 -3 -62 -2 -123 l3 -109 63 -3 62 -3 0 126 0 125 -60
0 c-41 0 -62 -4 -66 -13z"/>
<path d="M5 867 c-3 -7 -4 -65 -3 -128 l3 -114 60 0 60 0 0 125 0 125 -58 3
c-41 2 -59 -1 -62 -11z"/>
<path d="M0 375 l0 -125 65 0 65 0 0 125 0 125 -65 0 -65 0 0 -125z"/>
</g>
</svg>
