<?xml version="1.0" standalone="no"?>
<!DOCTYPE svg PUBLIC "-//W3C//DTD SVG 20010904//EN"
 "http://www.w3.org/TR/2001/REC-SVG-20010904/DTD/svg10.dtd">
<svg version="1.0" xmlns="http://www.w3.org/2000/svg"
 width="208.000000pt" height="208.000000pt" viewBox="0 0 208.000000 208.000000"
 preserveAspectRatio="xMidYMid meet">
<metadata>
Created by potrace 1.11, written by Peter Selinger 2001-2013
</metadata>
<g transform="translate(0.000000,208.000000) scale(0.100000,-0.100000)"
fill="#000000" stroke="none">
<path d="M1215 1984 c-143 -22 -244 -51 -330 -93 -67 -33 -89 -51 -138 -111
-65 -78 -139 -227 -178 -353 l-24 -77 -60 -32 c-33 -17 -78 -41 -100 -52 -50
-26 -128 -80 -158 -109 -27 -26 -77 -93 -77 -102 0 -4 -8 -19 -19 -33 -10 -15
-22 -38 -26 -52 -4 -14 -21 -56 -38 -93 -46 -103 -35 -105 127 -24 130 66 219
97 274 97 l27 0 -3 -122 c-2 -72 2 -147 9 -181 9 -44 9 -61 0 -70 -6 -6 -11
-19 -11 -29 0 -11 -7 -18 -19 -18 -49 0 -64 -27 -41 -71 9 -15 7 -19 -5 -19
-29 0 -75 -30 -75 -49 0 -24 48 -88 126 -168 103 -106 144 -123 297 -123 120
0 152 12 181 69 26 49 136 66 218 35 24 -10 60 -33 81 -53 l38 -36 112 0 c159
1 255 29 332 97 122 110 161 230 78 240 -25 3 -28 7 -31 48 -4 54 -8 59 -50
62 -33 2 -33 3 -29 48 5 47 35 191 41 198 2 2 55 -15 118 -38 141 -52 152 -53
156 -18 3 28 -55 155 -82 177 -9 8 -16 19 -16 26 0 12 -93 107 -183 186 -43
38 -46 54 -21 123 15 43 16 56 5 115 -17 88 -46 148 -148 307 -66 103 -125
156 -221 202 l-76 36 67 29 c37 17 67 34 67 38 0 13 -90 9 -195 -7z m-11 -455
c41 -11 111 -75 127 -116 12 -32 12 -115 -1 -148 -14 -37 -87 -102 -128 -116
-56 -18 -156 -6 -203 26 -47 31 -89 109 -89 168 0 42 37 123 69 149 56 47 139
61 225 37z m388 -24 c63 -22 96 -59 108 -125 15 -80 -3 -144 -58 -202 -31 -33
-43 -35 -67 -8 -28 31 -124 87 -171 99 l-41 11 1 52 c0 29 -4 69 -8 90 -8 35
-6 38 34 67 36 26 52 31 100 31 31 0 77 -7 102 -15z"/>
<path d="M1143 1388 c-33 -16 -48 -61 -33 -99 12 -27 43 -49 71 -49 5 0 21 11
34 25 35 34 34 86 -1 114 -30 23 -39 24 -71 9z"/>
<path d="M1481 1376 c-49 -52 -2 -149 63 -132 66 17 87 87 40 131 -34 32 -74
32 -103 1z"/>
</g>
</svg>
