<?xml version="1.0" standalone="no"?>
<!DOCTYPE svg PUBLIC "-//W3C//DTD SVG 20010904//EN"
 "http://www.w3.org/TR/2001/REC-SVG-20010904/DTD/svg10.dtd">
<svg version="1.0" xmlns="http://www.w3.org/2000/svg"
 width="260.000000pt" height="260.000000pt" viewBox="0 0 260.000000 260.000000"
 preserveAspectRatio="xMidYMid meet">
<metadata>
Created by potrace 1.11, written by Peter Selinger 2001-2013
</metadata>
<g transform="translate(0.000000,260.000000) scale(0.100000,-0.100000)"
fill="#000000" stroke="none">
<path d="M330 2589 c0 -5 5 -7 12 -3 7 4 8 3 4 -4 -4 -7 -14 -12 -22 -12 -8 0
-13 -4 -9 -10 3 -5 13 -7 23 -4 15 5 15 4 -1 -6 -9 -6 -15 -15 -12 -20 3 -5 0
-12 -6 -16 -8 -4 -9 -3 -5 4 4 7 2 12 -4 12 -6 0 -8 5 -4 13 5 8 2 8 -9 -2
-17 -14 -24 -26 -9 -17 5 3 9 -1 9 -9 0 -10 -5 -11 -18 -4 -26 14 -36 11 -14
-4 11 -9 14 -16 7 -21 -6 -3 -13 -2 -17 4 -4 6 -11 8 -16 4 -6 -4 -6 -11 2
-20 6 -7 16 -11 22 -7 6 3 7 1 3 -5 -5 -9 -13 -9 -29 -1 -22 12 -22 11 -4 -9
14 -15 15 -22 6 -28 -7 -4 -10 -3 -5 4 4 6 -4 16 -16 23 -20 11 -22 11 -10 -3
16 -20 -4 -30 -32 -16 -13 7 -16 7 -11 -2 4 -6 -1 -18 -11 -26 -14 -10 -15
-14 -4 -12 8 2 18 7 22 13 4 5 11 6 15 1 4 -5 2 -11 -5 -13 -6 -3 -10 -9 -7
-13 3 -5 0 -12 -6 -16 -8 -4 -9 -3 -5 4 4 7 2 12 -3 12 -14 0 -14 -13 1 -28 9
-9 9 -15 0 -24 -7 -7 -12 -16 -12 -22 0 -5 6 -2 13 9 11 14 16 15 22 5 6 -9 4
-11 -5 -5 -10 6 -12 4 -7 -8 3 -10 2 -17 -3 -17 -6 0 -10 -4 -10 -10 0 -5 6
-8 13 -6 6 1 9 1 4 -1 -4 -3 -5 -9 -2 -13 3 -5 0 -12 -6 -16 -8 -4 -9 -3 -5 4
4 7 2 12 -3 12 -14 0 -14 -13 1 -28 9 -9 9 -15 0 -24 -7 -7 -12 -16 -12 -22 0
-5 6 -2 13 9 11 14 16 15 22 5 6 -9 4 -11 -5 -5 -8 5 -11 3 -8 -6 3 -8 -4 -22
-15 -31 -11 -10 -15 -18 -9 -18 6 0 9 -7 6 -15 -4 -8 -2 -15 4 -15 5 0 9 10 8
22 0 11 6 23 14 25 9 3 11 1 5 -4 -14 -12 -17 -65 -3 -57 7 5 8 2 2 -7 -13
-21 -13 -80 0 -72 8 5 8 3 0 -8 -6 -8 -10 -24 -8 -36 2 -13 0 -23 -5 -23 -6 0
-8 9 -6 20 2 11 0 20 -5 20 -5 0 -8 -12 -6 -27 1 -22 6 -27 21 -25 20 3 20 3
0 -13 -11 -9 -13 -14 -5 -10 8 4 6 0 -4 -9 -15 -12 -16 -19 -8 -29 7 -8 8 -18
4 -22 -4 -5 0 -5 8 -1 9 5 8 2 -2 -7 -19 -15 -25 -32 -8 -22 5 3 11 1 11 -4 3
-26 4 -30 11 -36 4 -4 0 -18 -9 -31 -14 -22 -11 -28 9 -25 5 0 8 -4 8 -9 0 -6
-4 -10 -10 -10 -5 0 -9 -6 -7 -12 1 -7 -6 -12 -16 -11 -17 1 -17 -1 3 -19 14
-13 19 -26 14 -40 -4 -15 -3 -18 6 -13 9 6 11 4 4 -6 -13 -21 -13 -80 0 -72 7
5 7 2 -1 -8 -6 -8 -11 -18 -11 -24 0 -5 5 -16 11 -24 10 -12 9 -13 -2 -6 -11
6 -13 4 -8 -7 3 -9 0 -21 -6 -27 -9 -9 -8 -11 3 -8 8 2 12 2 7 0 -4 -3 -5 -9
-2 -13 3 -5 0 -12 -6 -16 -8 -4 -9 -3 -5 4 4 7 2 12 -3 12 -14 0 -14 -13 1
-28 9 -9 9 -15 0 -24 -7 -7 -12 -16 -12 -22 0 -5 6 -2 13 9 11 14 16 15 22 5
6 -9 4 -11 -5 -5 -10 6 -12 4 -7 -8 3 -10 2 -17 -3 -17 -6 0 -10 -4 -10 -10 0
-5 6 -8 12 -6 7 1 10 1 5 -1 -4 -3 -5 -9 -2 -13 3 -5 0 -12 -6 -16 -8 -4 -9
-3 -5 4 4 7 2 12 -3 12 -14 0 -14 -13 1 -28 9 -9 9 -15 0 -24 -7 -7 -12 -16
-12 -22 0 -5 6 -2 13 9 11 14 16 15 22 5 6 -9 4 -11 -5 -5 -8 5 -11 3 -8 -6 3
-8 -4 -22 -15 -32 -11 -9 -15 -17 -9 -17 6 0 9 -7 6 -15 -4 -8 -2 -15 4 -15 5
0 9 10 8 22 0 11 6 23 14 25 9 3 11 1 5 -4 -14 -12 -17 -65 -3 -57 7 5 8 2 2
-7 -13 -21 -13 -80 0 -72 8 5 8 3 0 -8 -6 -8 -10 -24 -8 -36 2 -13 0 -23 -5
-23 -6 0 -8 9 -6 20 2 11 0 20 -5 20 -5 0 -8 -12 -6 -27 1 -22 6 -27 21 -25
20 3 20 3 0 -13 -11 -9 -13 -14 -5 -10 8 4 6 0 -4 -9 -15 -12 -16 -19 -8 -29
7 -8 8 -18 4 -22 -4 -5 0 -5 8 -1 9 5 8 2 -2 -7 -19 -15 -25 -32 -8 -22 5 3
11 1 11 -4 3 -26 4 -30 11 -36 4 -4 0 -18 -9 -31 -14 -22 -11 -28 10 -25 4 0
7 -3 7 -9 0 -5 -5 -10 -10 -10 -6 0 -9 -6 -8 -12 2 -7 -5 -12 -15 -11 -17 1
-17 -1 3 -19 14 -13 19 -26 14 -40 -4 -15 -3 -18 6 -13 9 6 11 4 4 -6 -13 -21
-13 -80 0 -72 7 5 7 2 -1 -8 -6 -8 -11 -18 -11 -24 0 -5 5 -16 11 -24 10 -12
9 -13 -2 -6 -11 6 -13 4 -8 -7 3 -9 0 -21 -6 -27 -9 -9 -8 -11 3 -8 8 2 12 2
7 0 -4 -3 -5 -9 -2 -13 3 -5 0 -12 -6 -16 -8 -4 -9 -3 -5 4 4 7 2 12 -3 12
-14 0 -14 -13 1 -28 9 -9 9 -15 0 -24 -7 -7 -12 -16 -12 -22 0 -5 6 -2 13 9
11 14 16 15 22 5 6 -9 4 -11 -5 -5 -10 6 -12 4 -7 -8 3 -10 2 -17 -3 -17 -6 0
-10 -4 -10 -10 0 -5 6 -8 13 -6 6 1 9 1 4 -1 -4 -3 -5 -9 -2 -13 3 -5 0 -12
-6 -16 -8 -4 -9 -3 -5 4 4 7 2 12 -3 12 -14 0 -14 -13 1 -28 9 -9 9 -15 0 -24
-7 -7 -12 -16 -12 -22 0 -5 6 -2 13 9 11 14 16 15 22 5 6 -9 4 -11 -5 -5 -8 5
-11 3 -8 -6 3 -8 -4 -22 -15 -32 -11 -9 -15 -17 -8 -17 7 0 9 -5 5 -13 -4 -7
-3 -9 2 -4 5 5 9 14 9 19 0 6 7 13 15 15 12 4 12 3 2 -5 -8 -5 -13 -12 -13
-16 4 -25 0 -36 -11 -30 -7 4 -8 3 -4 -5 6 -9 11 -9 24 1 10 9 13 9 9 1 -5 -7
-1 -12 10 -12 39 -1 52 -5 47 -13 -3 -4 -14 -4 -24 2 -13 7 -21 7 -25 0 -4 -6
-3 -10 2 -9 20 3 33 -2 33 -13 0 -17 60 -51 60 -35 1 7 6 2 13 -11 7 -12 15
-21 18 -20 2 2 3 1 2 -1 -1 -1 2 -14 7 -27 6 -15 5 -26 -2 -30 -7 -4 -8 -3 -4
4 4 7 2 12 -4 12 -7 0 -10 -6 -8 -12 4 -10 203 -14 942 -16 632 -1 935 1 931
8 -3 5 -3 10 2 10 4 0 16 11 26 25 12 17 14 26 5 31 -7 5 -8 3 -3 -6 6 -9 4
-11 -5 -5 -7 5 -11 4 -8 -1 3 -5 0 -15 -8 -22 -25 -23 -15 6 12 35 14 15 23
22 19 15 -3 -6 -1 -12 4 -12 6 0 11 5 11 10 0 6 5 10 11 10 5 0 7 -6 3 -12 -6
-10 -5 -10 8 -1 8 7 19 9 23 5 5 -4 5 -2 1 5 -3 6 -2 14 2 17 5 3 8 18 6 33
-2 16 -1 22 2 16 3 -7 13 -13 22 -13 15 0 15 2 2 10 -13 9 -13 12 3 21 9 6 15
14 12 20 -4 5 -2 9 4 9 5 0 8 11 6 25 -2 24 -1 24 15 10 9 -8 21 -15 26 -15 5
0 1 5 -9 11 -9 6 -15 14 -12 20 4 5 -1 9 -9 9 -8 0 -18 4 -21 10 -4 6 1 7 12
3 17 -6 17 -5 0 14 -14 16 -14 20 -2 20 8 0 12 -3 10 -7 -2 -4 2 -7 10 -7 13
0 13 3 0 17 -8 9 -15 23 -15 30 0 9 5 7 16 -6 15 -18 15 -18 5 2 -6 12 -7 25
-3 29 4 4 -4 4 -18 1 -17 -5 -21 -4 -12 2 8 5 14 13 14 17 0 4 -6 12 -14 16
-10 7 -10 9 0 9 7 0 10 5 6 12 -4 6 -3 8 4 4 6 -3 9 -15 7 -26 -2 -11 0 -20 6
-20 5 0 7 11 5 25 -6 31 -15 47 -25 41 -4 -3 -8 1 -8 9 0 8 4 12 9 9 4 -3 8 2
8 11 0 10 -5 14 -13 9 -6 -4 -2 3 11 15 12 12 20 26 17 32 -8 13 -16 11 -13
-2 2 -6 -4 -14 -12 -16 -10 -3 -11 -2 -4 4 6 4 10 18 9 31 -1 20 0 21 15 7 9
-8 21 -15 26 -15 5 0 1 5 -9 11 -9 6 -15 14 -12 20 4 5 -1 9 -9 9 -8 0 -18 4
-21 10 -4 6 1 7 12 3 17 -6 17 -5 0 14 -14 16 -14 20 -2 20 8 0 12 -3 10 -7
-2 -4 2 -7 10 -7 13 0 13 3 0 17 -8 9 -15 23 -15 30 0 9 5 7 16 -6 15 -18 15
-18 5 2 -6 12 -7 25 -3 29 4 4 -4 4 -18 1 -17 -5 -21 -4 -12 2 17 12 17 22 0
33 -10 7 -10 9 0 9 7 0 10 5 6 12 -4 6 -3 8 4 4 6 -3 9 -15 7 -26 -2 -11 0
-20 6 -20 5 0 7 11 5 25 -6 31 -15 47 -25 41 -4 -3 -8 1 -8 9 0 8 4 12 9 9 4
-3 8 2 8 11 0 10 -5 14 -12 9 -7 -4 -3 3 10 15 12 12 20 26 17 32 -8 13 -16
11 -13 -2 2 -6 -4 -14 -12 -16 -10 -3 -11 -2 -4 4 6 4 10 18 9 31 -1 20 0 21
15 7 9 -8 21 -15 26 -15 5 0 1 5 -9 11 -9 6 -15 14 -12 20 4 5 -1 9 -9 9 -8 0
-18 4 -21 10 -4 6 1 7 12 3 17 -6 17 -5 0 14 -14 16 -14 20 -2 20 8 0 12 -3
10 -7 -2 -4 2 -7 10 -7 13 0 13 3 0 17 -8 9 -15 23 -15 30 0 9 5 7 16 -6 15
-18 15 -18 5 2 -6 12 -7 25 -3 29 4 4 -4 4 -18 1 -17 -5 -21 -4 -12 2 17 12
17 22 0 33 -10 7 -10 9 0 9 7 0 10 5 6 12 -4 6 -3 8 4 4 6 -3 9 -15 7 -26 -2
-11 0 -20 6 -20 5 0 7 11 5 25 -6 31 -15 47 -25 41 -4 -3 -8 1 -8 9 0 8 4 12
9 9 4 -3 8 2 8 11 0 10 -5 14 -12 9 -7 -4 -3 3 10 15 12 12 20 26 17 32 -8 13
-16 11 -13 -2 2 -6 -4 -14 -12 -16 -10 -3 -11 -2 -4 4 6 4 10 18 9 31 -1 20 0
21 15 7 9 -8 21 -15 26 -15 5 0 1 5 -9 11 -9 6 -15 14 -12 20 4 5 -1 9 -9 9
-8 0 -18 4 -21 10 -4 6 1 7 12 3 17 -6 17 -5 0 14 -14 16 -14 20 -2 20 8 0 12
-3 10 -7 -2 -4 2 -7 10 -7 13 0 13 3 0 17 -8 9 -15 23 -15 30 0 9 5 7 16 -6
15 -18 15 -18 5 2 -6 12 -7 25 -3 29 4 4 -4 4 -18 1 -17 -5 -21 -4 -12 2 8 5
14 13 14 17 0 4 -6 12 -14 16 -10 7 -10 9 0 9 7 0 10 5 6 12 -4 6 -3 8 4 4 6
-3 9 -15 7 -26 -2 -11 0 -20 6 -20 5 0 7 11 5 25 -6 31 -15 47 -25 41 -4 -3
-8 1 -8 9 0 8 4 12 9 9 4 -3 8 2 8 11 0 10 -5 14 -12 9 -7 -4 -3 3 10 15 12
12 20 26 17 32 -8 13 -16 11 -13 -2 2 -6 -4 -14 -12 -16 -10 -3 -11 -2 -4 4 6
4 10 18 9 31 -1 20 0 21 15 7 9 -8 21 -15 26 -15 5 0 1 5 -9 11 -9 6 -15 14
-12 20 4 5 -1 9 -9 9 -8 0 -18 4 -21 10 -4 6 1 7 12 3 17 -6 17 -5 0 14 -14
16 -14 20 -2 20 8 0 12 -3 10 -7 -2 -4 2 -7 10 -7 13 0 13 3 0 17 -8 9 -15 23
-15 30 0 9 5 7 16 -6 15 -18 15 -18 5 2 -6 12 -7 25 -3 29 4 4 -4 4 -18 1 -17
-5 -21 -4 -12 2 17 12 17 22 0 33 -10 7 -10 9 0 9 7 0 10 5 6 12 -4 6 -3 8 4
4 6 -3 9 -15 7 -26 -2 -11 0 -20 6 -20 5 0 7 11 5 25 -6 31 -15 47 -25 41 -4
-3 -8 1 -8 9 0 8 4 12 9 9 4 -3 8 2 8 11 0 10 -5 14 -12 9 -7 -4 -3 3 10 15
12 12 20 26 17 32 -8 13 -16 11 -13 -2 2 -6 -4 -14 -12 -16 -10 -3 -11 -2 -4
4 6 4 10 18 9 31 -1 20 0 21 15 7 9 -8 21 -15 26 -15 5 0 1 5 -9 11 -9 6 -15
14 -12 20 4 5 -1 9 -9 9 -8 0 -18 4 -21 10 -4 6 1 7 12 3 17 -6 17 -5 0 14
-14 16 -14 20 -2 20 8 0 12 -3 10 -7 -2 -4 2 -7 10 -7 13 0 13 3 0 17 -8 9
-15 23 -15 30 0 9 5 7 16 -6 15 -18 15 -18 5 2 -6 12 -7 25 -3 29 4 4 -4 4
-18 1 -17 -5 -21 -4 -12 2 8 5 14 13 14 17 0 4 -6 12 -14 16 -10 7 -10 9 0 9
7 0 10 5 6 12 -4 6 -3 8 4 4 6 -3 9 -15 7 -26 -2 -11 0 -20 6 -20 5 0 7 11 5
25 -6 31 -15 47 -25 41 -4 -3 -8 1 -8 9 0 8 4 12 9 9 4 -3 8 2 8 11 0 10 -5
14 -12 9 -7 -4 -3 3 10 15 12 12 20 26 17 32 -8 13 -16 11 -13 -2 2 -6 -4 -14
-12 -16 -10 -3 -11 -2 -4 4 6 4 10 18 9 31 -1 20 0 21 15 7 9 -8 21 -15 26
-15 5 0 1 5 -9 11 -9 6 -15 14 -12 20 4 5 -1 9 -9 9 -8 0 -18 4 -21 10 -4 6 1
7 12 3 17 -6 17 -5 0 14 -14 16 -14 20 -2 20 8 0 12 -3 10 -7 -2 -4 2 -7 10
-7 13 0 13 3 0 17 -8 9 -15 23 -15 30 0 9 5 7 16 -6 15 -18 15 -18 5 2 -6 12
-7 25 -3 29 4 4 -4 4 -18 1 -17 -5 -21 -4 -12 2 8 5 14 13 14 17 0 4 -6 12
-14 16 -9 6 -10 9 -1 9 7 0 10 7 7 18 -5 13 -4 14 4 3 6 -8 9 -23 7 -33 -2
-10 0 -18 6 -18 5 0 7 10 5 23 -8 40 -18 57 -30 50 -7 -4 -7 -1 1 9 7 8 10 18
6 21 -3 4 -1 7 6 7 7 0 11 -6 8 -14 -3 -8 0 -17 8 -20 18 -7 8 23 -16 46 -13
13 -19 14 -23 5 -3 -9 -7 -9 -14 2 -5 7 -16 10 -23 7 -8 -4 -5 -1 5 8 18 15
17 15 -13 11 -18 -2 -29 0 -25 6 3 5 9 7 14 4 5 -3 12 0 16 6 5 8 3 9 -6 4 -9
-6 -12 -4 -8 7 5 11 -1 14 -25 14 -18 -1 -38 -5 -46 -10 -9 -6 -12 -5 -7 2 13
21 -52 40 -66 19 -5 -7 -6 0 -4 17 8 44 -7 62 -53 64 -23 2 -41 -2 -41 -8 0
-21 -2 -25 -18 -44 -11 -12 -12 -16 -3 -11 10 6 12 4 7 -4 -4 -7 -17 -9 -29
-6 -19 5 -19 4 3 -9 30 -18 21 -21 -15 -4 l-26 12 23 13 23 14 -22 -6 c-16 -5
-23 -2 -23 8 0 9 6 18 13 20 9 4 9 6 -1 6 -7 1 -11 5 -8 10 4 5 -36 9 -92 9
-65 0 -90 -3 -74 -9 26 -10 30 -21 4 -12 -15 6 -14 3 3 -17 11 -13 14 -20 6
-15 -10 6 -12 2 -6 -16 4 -16 3 -19 -3 -11 -7 10 -11 10 -22 -3 -12 -14 -15
-14 -36 0 -14 9 -24 11 -24 5 0 -6 -5 -8 -11 -4 -8 4 -7 9 2 15 7 4 18 4 24
-1 16 -13 46 -6 57 15 10 17 9 17 -13 2 -26 -19 -43 -22 -34 -8 3 6 -3 8 -15
6 -11 -2 -23 1 -26 7 -4 6 -3 8 3 5 6 -4 13 2 16 14 4 16 3 18 -8 9 -10 -8
-15 -8 -21 1 -4 8 -3 9 4 5 7 -4 12 -2 12 4 0 7 -29 10 -84 9 -68 -1 -82 -4
-73 -14 7 -7 16 -11 20 -8 5 3 3 -5 -3 -18 -18 -34 -21 -36 -18 -9 2 13 -3 25
-12 27 -13 4 -13 3 0 -6 13 -9 12 -12 -5 -25 -11 -8 -29 -13 -40 -10 -19 5
-19 4 -2 -6 14 -9 22 -9 33 0 10 9 14 9 14 1 0 -6 -5 -11 -11 -11 -5 0 -7 -5
-3 -11 5 -8 1 -8 -13 0 -11 6 -23 7 -27 4 -6 -6 -8 3 -8 32 0 30 2 36 14 29 7
-4 8 -3 4 5 -6 9 -11 9 -24 -1 -13 -11 -15 -11 -9 4 5 15 -4 16 -83 16 -64 -1
-87 -4 -81 -12 5 -6 9 -14 8 -18 -1 -3 1 -10 6 -14 4 -4 7 -2 7 5 0 7 5 9 11
5 8 -5 7 -10 -4 -16 -9 -5 -15 -14 -13 -21 1 -6 1 -9 -1 -5 -2 4 -11 4 -19 1
-7 -3 -11 -10 -7 -16 3 -6 1 -7 -5 -3 -7 4 -22 9 -33 11 -24 5 -38 15 -21 15
7 0 12 5 12 11 0 5 -5 7 -12 3 -7 -4 -8 -3 -4 5 4 6 11 9 16 6 5 -3 11 -2 14
3 8 13 -27 11 -44 -2 -13 -9 -13 -9 -3 5 7 9 10 19 6 23 -4 4 0 4 10 0 9 -3
17 -2 17 3 0 5 -41 10 -92 11 -60 0 -87 -2 -78 -8 8 -6 11 -10 6 -10 -5 0 -3
-6 3 -14 8 -9 8 -16 2 -20 -5 -4 -8 -16 -6 -28 3 -11 1 -17 -3 -14 -4 4 -7 13
-7 19 0 6 -15 12 -33 13 -29 2 -31 0 -15 -11 13 -10 20 -10 25 -2 6 9 8 9 8 0
0 -16 -17 -26 -25 -13 -4 6 -11 8 -16 5 -5 -4 -10 0 -10 7 -1 7 -3 24 -4 38
-1 14 -3 29 -4 34 0 5 -9 2 -18 -5 -13 -11 -15 -11 -9 -1 6 10 -9 13 -72 11
-79 -2 -80 -2 -76 -26 3 -17 1 -22 -7 -17 -8 4 -9 3 -5 -5 10 -15 29 -3 22 15
-3 7 -2 15 2 18 17 10 9 -31 -10 -54 -11 -14 -17 -20 -14 -14 5 11 -37 30 -56
26 -5 -1 -8 5 -8 14 0 8 -4 12 -10 9 -6 -3 -7 1 -4 10 6 14 8 14 19 -1 10 -15
12 -15 12 -1 0 9 -6 18 -12 21 -21 8 -176 3 -181 -6 -3 -5 2 -18 11 -28 19
-21 9 -31 -27 -28 -38 3 -60 33 -36 50 9 6 5 7 -11 3 -16 -5 -21 -4 -17 4 5 8
-16 11 -68 11 -47 0 -76 -4 -76 -11z m245 -9 c3 -5 1 -10 -4 -10 -6 0 -11 5
-11 10 0 6 2 10 4 10 3 0 8 -4 11 -10z m1370 0 c3 -5 1 -10 -4 -10 -6 0 -11 5
-11 10 0 6 2 10 4 10 3 0 8 -4 11 -10z m167 -28 c-7 -2 -9 -9 -6 -14 4 -7 2
-8 -5 -4 -9 6 -9 11 0 22 9 11 9 14 0 14 -7 0 -9 5 -5 11 4 8 10 6 17 -7 7
-13 7 -19 -1 -22z m-1622 14 c0 -3 -4 -8 -10 -11 -5 -3 -10 -1 -10 4 0 6 5 11
10 11 6 0 10 -2 10 -4z m490 -6 c0 -5 -2 -10 -4 -10 -3 0 -8 5 -11 10 -3 6 -1
10 4 10 6 0 11 -4 11 -10z m1063 -6 c-7 -3 -9 -13 -6 -22 4 -14 3 -14 -5 -2
-12 16 -7 30 11 29 9 0 9 -2 0 -5z m-1538 -24 c4 -6 10 -8 15 -5 4 3 11 -2 14
-10 4 -12 2 -13 -13 -6 -10 6 -22 7 -26 3 -5 -4 -5 -2 -2 5 4 6 1 14 -5 16 -9
4 -10 6 -1 6 6 1 15 -4 18 -9z m269 -15 c3 -9 0 -12 -10 -8 -7 3 -14 10 -14
17 0 6 -5 4 -10 -4 -5 -8 -10 -10 -10 -4 0 26 33 25 44 -1z m1402 -7 c3 -4 -1
-5 -10 -4 -8 1 -18 5 -22 8 -3 4 1 5 10 4 8 -1 18 -5 22 -8z m159 -88 c-3 -5
-12 -10 -18 -10 -7 0 -6 4 3 10 19 12 23 12 15 0z m-2145 -542 c0 -4 -4 -8 -9
-8 -6 0 -12 4 -15 8 -3 5 1 9 9 9 8 0 15 -4 15 -9z m0 -960 c0 -4 -4 -8 -9 -8
-6 0 -12 4 -15 8 -3 5 1 9 9 9 8 0 15 -4 15 -9z m2089 -805 c-6 -7 -15 -10
-21 -7 -5 3 -4 11 2 19 7 8 9 20 5 27 -4 7 1 4 9 -6 12 -14 13 -23 5 -33z
m-2019 27 c0 -5 -5 -10 -11 -10 -5 0 -7 5 -4 10 3 6 8 10 11 10 2 0 4 -4 4
-10z"/>
<path d="M1036 2572 c-3 -6 1 -15 8 -21 8 -7 17 -8 20 -3 3 6 -1 15 -8 21 -8
7 -17 8 -20 3z"/>
<path d="M1275 2539 c-4 -6 -13 -8 -21 -5 -7 3 -16 1 -19 -4 -8 -12 44 -5 58
9 8 8 8 11 0 11 -7 0 -15 -5 -18 -11z"/>
<path d="M2192 2526 c7 -8 15 -12 17 -11 5 6 -10 25 -20 25 -5 0 -4 -6 3 -14z"/>
<path d="M2227 2525 c3 -8 9 -12 14 -9 12 7 11 11 -5 17 -10 4 -13 1 -9 -8z"/>
<path d="M2358 2082 c-3 -11 0 -19 7 -19 7 0 10 8 7 19 -2 10 -6 18 -7 18 -1
0 -5 -8 -7 -18z"/>
<path d="M153 2050 c1 -11 5 -20 9 -20 3 0 6 9 5 20 -1 11 -5 20 -9 20 -3 0
-6 -9 -5 -20z"/>
<path d="M155 1779 c-10 -15 3 -25 16 -12 7 7 7 13 1 17 -6 3 -14 1 -17 -5z"/>
<path d="M2358 1762 c-3 -11 0 -19 7 -19 7 0 10 8 7 19 -2 10 -6 18 -7 18 -1
0 -5 -8 -7 -18z"/>
<path d="M150 1711 c0 -6 4 -12 8 -15 5 -3 9 1 9 9 0 8 -4 15 -9 15 -4 0 -8
-4 -8 -9z"/>
<path d="M153 1645 c0 -8 4 -15 9 -15 4 0 8 4 8 9 0 6 -4 12 -8 15 -5 3 -9 -1
-9 -9z"/>
<path d="M153 1570 c1 -11 5 -20 9 -20 3 0 6 9 5 20 -1 11 -5 20 -9 20 -3 0
-6 -9 -5 -20z"/>
<path d="M153 1485 c0 -14 2 -27 6 -29 3 -2 6 9 6 25 1 16 -2 29 -6 29 -3 0
-6 -11 -6 -25z"/>
<path d="M2358 1442 c-3 -11 0 -19 7 -19 7 0 10 8 7 19 -2 10 -6 18 -7 18 -1
0 -5 -8 -7 -18z"/>
<path d="M2358 1122 c-3 -11 0 -19 7 -19 7 0 10 8 7 19 -2 10 -6 18 -7 18 -1
0 -5 -8 -7 -18z"/>
<path d="M153 1090 c1 -11 5 -20 9 -20 3 0 6 9 5 20 -1 11 -5 20 -9 20 -3 0
-6 -9 -5 -20z"/>
<path d="M155 819 c-10 -15 3 -25 16 -12 7 7 7 13 1 17 -6 3 -14 1 -17 -5z"/>
<path d="M2358 802 c-3 -11 0 -19 7 -19 7 0 10 8 7 19 -2 10 -6 18 -7 18 -1 0
-5 -8 -7 -18z"/>
<path d="M150 751 c0 -6 4 -12 8 -15 5 -3 9 1 9 9 0 8 -4 15 -9 15 -4 0 -8 -4
-8 -9z"/>
<path d="M153 685 c0 -8 4 -15 9 -15 4 0 8 4 8 9 0 6 -4 12 -8 15 -5 3 -9 -1
-9 -9z"/>
<path d="M153 610 c1 -11 5 -20 9 -20 3 0 6 9 5 20 -1 11 -5 20 -9 20 -3 0 -6
-9 -5 -20z"/>
<path d="M153 525 c0 -14 2 -27 6 -29 3 -2 6 9 6 25 1 16 -2 29 -6 29 -3 0 -6
-11 -6 -25z"/>
<path d="M2358 482 c-3 -11 0 -19 7 -19 7 0 10 8 7 19 -2 10 -6 18 -7 18 -1 0
-5 -8 -7 -18z"/>
<path d="M2355 223 c3 -3 -1 -16 -9 -27 -11 -18 -11 -23 1 -35 13 -12 14 -11
8 8 -3 12 -2 21 3 21 11 0 10 26 -1 35 -4 3 -5 2 -2 -2z"/>
<path d="M255 90 c-4 -7 -2 -17 4 -23 9 -9 11 -8 5 6 -6 17 -5 18 14 6 11 -7
19 -16 17 -19 -2 -4 2 -7 9 -7 11 0 12 4 3 18 -6 10 -13 16 -16 14 -2 -3 -10
0 -17 6 -8 7 -14 7 -19 -1z"/>
</g>
</svg>
